<?xml version="1.0" standalone="no"?>
<!DOCTYPE svg PUBLIC "-//W3C//DTD SVG 1.1//EN" "http://www.w3.org/Graphics/SVG/1.1/DTD/svg11.dtd" >
<!--
2013-9-30: Created.
-->
<svg>
<metadata>
Created by iconfont
</metadata>
<defs>

<font id="iconfont" horiz-adv-x="1024" >
  <font-face
    font-family="iconfont"
    font-weight="500"
    font-stretch="normal"
    units-per-em="1024"
    ascent="896"
    descent="-128"
  />
    <missing-glyph />
    
    <glyph glyph-name="caiwutongji" unicode="&#58922;" d="M981.835294-25.6V781.552941c0 18.070588-12.047059 30.117647-30.117647 30.117647h-180.705882c-18.070588 0-30.117647-12.047059-30.117647-30.117647v-807.152941h-84.329412V468.329412c0 18.070588-12.047059 30.117647-30.117647 30.117647h-180.705883c-18.070588 0-30.117647-12.047059-30.117647-30.117647v-493.929412H331.294118v307.2c0 18.070588-12.047059 30.117647-30.117647 30.117647H120.470588c-18.070588 0-30.117647-12.047059-30.117647-30.117647v-307.2h-12.047059c-18.070588 0-30.117647-12.047059-30.117647-30.117647v-30.117647c0-18.070588 12.047059-30.117647 30.117647-30.117647h903.529412c18.070588 0 30.117647 12.047059 30.117647 30.117647v30.117647c0 18.070588-12.047059 30.117647-30.117647 30.117647zM831.247059 721.317647h60.235294v-740.894118h-60.235294V721.317647zM505.976471 408.094118h60.235294v-427.670589h-60.235294V408.094118zM180.705882 221.364706h60.235294V-7.529412H180.705882v228.894118zM96.376471 618.917647c-24.094118 0-48.188235-24.094118-48.188236-48.188235s18.070588-48.188235 48.188236-48.188236h90.352941v-120.470588c0-24.094118 18.070588-48.188235 48.188235-48.188235s48.188235 18.070588 48.188235 48.188235v120.470588h90.352942c24.094118 0 48.188235 18.070588 48.188235 48.188236s-30.117647 48.188235-54.211765 48.188235H277.082353v30.117647h90.352941c24.094118 0 48.188235 18.070588 48.188235 48.188235s-24.094118 42.164706-48.188235 42.164706h-30.117647l24.094118 24.094118c18.070588 18.070588 18.070588 48.188235 0 66.258823-18.070588 18.070588-48.188235 18.070588-66.258824 0L228.894118 763.482353l-60.235294 66.258823c-18.070588 12.047059-48.188235 12.047059-66.258824 0-18.070588-18.070588-18.070588-48.188235 0-66.258823l24.094118-24.094118h-30.117647c-24.094118 0-48.188235-24.094118-48.188236-48.188235s18.070588-48.188235 48.188236-48.188235h90.352941v-30.117647H96.376471z"  horiz-adv-x="1024" />

    
    <glyph glyph-name="chanpinshezhi" unicode="&#58923;" d="M349.364706 865.882353H150.588235c-66.258824 0-120.470588-54.211765-120.470588-120.470588v-198.776471c0-66.258824 54.211765-120.470588 120.470588-120.470588h198.776471c66.258824 0 120.470588 54.211765 120.470588 120.470588V745.411765c0 66.258824-54.211765 120.470588-120.470588 120.470588z m30.117647-319.247059c0-12.047059-18.070588-30.117647-30.117647-30.117647H150.588235c-18.070588 0-30.117647 18.070588-30.117647 30.117647V745.411765c0 18.070588 12.047059 30.117647 30.117647 30.117647h198.776471c12.047059 0 30.117647-12.047059 30.117647-30.117647v-198.776471zM349.364706 341.835294H150.588235c-66.258824 0-120.470588-54.211765-120.470588-120.470588v-198.776471c0-66.258824 54.211765-120.470588 120.470588-120.470588h198.776471c66.258824 0 120.470588 54.211765 120.470588 120.470588v198.776471c0 66.258824-54.211765 120.470588-120.470588 120.470588z m30.117647-319.247059c0-18.070588-18.070588-30.117647-30.117647-30.117647H150.588235c-18.070588 0-30.117647 12.047059-30.117647 30.117647v198.776471c0 18.070588 12.047059 30.117647 30.117647 30.117647h198.776471c18.070588 0 30.117647-12.047059 30.117647-30.117647v-198.776471zM873.411765 341.835294h-198.776471c-66.258824 0-120.470588-54.211765-120.470588-120.470588v-198.776471c0-66.258824 54.211765-120.470588 120.470588-120.470588h198.776471c66.258824 0 120.470588 54.211765 120.470588 120.470588v198.776471c0 66.258824-54.211765 120.470588-120.470588 120.470588z m30.117647-319.247059c0-18.070588-12.047059-30.117647-30.117647-30.117647h-198.776471c-18.070588 0-30.117647 12.047059-30.117647 30.117647v198.776471c0 18.070588 12.047059 30.117647 30.117647 30.117647h198.776471c18.070588 0 30.117647-12.047059 30.117647-30.117647v-198.776471zM777.035294 426.164706c120.470588 0 216.847059 96.376471 216.847059 216.847059S897.505882 859.858824 777.035294 859.858824 554.164706 769.505882 554.164706 649.035294s102.4-222.870588 222.870588-222.870588z m0 349.364706C843.294118 775.529412 903.529412 715.294118 903.529412 649.035294s-60.235294-126.494118-126.494118-126.494118-126.494118 60.235294-126.494118 126.494118 54.211765 126.494118 126.494118 126.494118z"  horiz-adv-x="1024" />

    
    <glyph glyph-name="daichaoguanli" unicode="&#58924;" d="M861.364706 847.811765H162.635294C90.352941 847.811765 30.117647 787.576471 30.117647 715.294118v-783.058824c0-24.094118 18.070588-42.164706 42.164706-42.164706s48.188235 18.070588 48.188235 42.164706V715.294118c0 24.094118 18.070588 42.164706 42.164706 42.164706h698.729412c24.094118 0 42.164706-18.070588 42.164706-42.164706v-698.729412c0-24.094118-18.070588-42.164706-42.164706-42.164706h-481.882353c-24.094118 0-42.164706-18.070588-42.164706-42.164706 0-24.094118 18.070588-42.164706 42.164706-42.164706h481.882353c72.282353 0 132.517647 60.235294 132.517647 132.517647V721.317647c0 72.282353-60.235294 126.494118-132.517647 126.494118zM843.294118 655.058824c0 24.094118-18.070588 42.164706-42.164706 42.164705s-42.164706-18.070588-42.164706-42.164705c0-96.376471-108.423529-174.682353-246.964706-174.682353S265.035294 558.682353 265.035294 655.058824c0 24.094118-18.070588 42.164706-42.164706 42.164705S180.705882 679.152941 180.705882 655.058824c0-144.564706 150.588235-265.035294 331.294118-265.035295S843.294118 510.494118 843.294118 655.058824z"  horiz-adv-x="1024" />

    
    <glyph glyph-name="daichaotongji" unicode="&#58925;" d="M873.411765 841.788235h-722.82353c-66.258824 0-120.470588-54.211765-120.470588-120.470588V173.176471c0-66.258824 54.211765-120.470588 120.470588-120.470589h722.82353c66.258824 0 120.470588 54.211765 120.470588 120.470589V721.317647c0 66.258824-54.211765 120.470588-120.470588 120.470588zM903.529412 173.176471c0-18.070588-12.047059-30.117647-30.117647-30.117647H783.058824v72.282352c0 24.094118-18.070588 42.164706-42.164706 42.164706-24.094118 0-42.164706-18.070588-42.164706-42.164706v-72.282352H554.164706V365.929412c0 24.094118-18.070588 42.164706-42.164706 42.164706-24.094118 0-42.164706-18.070588-42.164706-42.164706v-216.847059H325.270588V546.635294c0 24.094118-18.070588 48.188235-42.164706 48.188235-24.094118 0-42.164706-24.094118-42.164706-48.188235v-403.57647H150.588235c-18.070588 0-30.117647 12.047059-30.117647 30.117647V721.317647c0 18.070588 12.047059 30.117647 30.117647 30.117647h722.82353c18.070588 0 30.117647-12.047059 30.117647-30.117647V173.176471zM777.035294-37.647059H246.964706c-24.094118 0-42.164706-18.070588-42.164706-42.164706 0-24.094118 18.070588-42.164706 42.164706-42.164706h524.047059c24.094118 0 42.164706 18.070588 42.164706 42.164706 6.023529 24.094118-12.047059 42.164706-36.141177 42.164706z"  horiz-adv-x="1024" />

    
    <glyph glyph-name="cuishouhuikuanmingxi" unicode="&#58929;" d="M861.364706 865.882353h-90.352941c-24.094118 0-42.164706-18.070588-42.164706-42.164706s24.094118-48.188235 48.188235-48.188235h90.352941c18.070588 0 36.141176-18.070588 36.141177-42.164706v-698.729412c0-24.094118-18.070588-42.164706-42.164706-42.164706H162.635294c-24.094118 0-42.164706 18.070588-42.164706 42.164706V733.364706c0 24.094118 18.070588 42.164706 42.164706 42.164706h90.352941c24.094118 0 42.164706 18.070588 42.164706 42.164706S271.058824 865.882353 246.964706 865.882353H162.635294C90.352941 865.882353 30.117647 805.647059 30.117647 733.364706v-698.729412c0-72.282353 60.235294-132.517647 132.517647-132.517647h698.729412c72.282353 0 132.517647 60.235294 132.517647 132.517647V733.364706c0 72.282353-60.235294 132.517647-132.517647 132.517647zM391.529412 781.552941h246.964706c24.094118 0 42.164706 18.070588 42.164706 42.164706 0 24.094118-18.070588 42.164706-42.164706 42.164706H391.529412c-24.094118 0-42.164706-18.070588-42.164706-42.164706 0-24.094118 18.070588-42.164706 42.164706-42.164706zM777.035294 480.376471H246.964706c-24.094118 0-42.164706-18.070588-42.164706-42.164706 0-24.094118 18.070588-42.164706 42.164706-42.164706h524.047059c24.094118 0 42.164706 18.070588 42.164706 42.164706 6.023529 24.094118-12.047059 42.164706-36.141177 42.164706zM777.035294 263.529412H246.964706c-24.094118 0-42.164706-18.070588-42.164706-42.164706 0-24.094118 18.070588-42.164706 42.164706-42.164706h524.047059c24.094118 0 42.164706 18.070588 42.164706 42.164706 6.023529 24.094118-12.047059 42.164706-36.141177 42.164706z"  horiz-adv-x="1024" />

    
    <glyph glyph-name="heimingdan" unicode="&#58930;" d="M662.588235 432.188235c54.211765 48.188235 90.352941 114.447059 90.352941 192.752941 0 138.541176-108.423529 246.964706-240.941176 246.964706s-240.941176-108.423529-240.941176-246.964706c0-78.305882 36.141176-144.564706 90.352941-192.752941C168.658824 365.929412 36.141176 185.223529 36.141176-25.6v-42.164706c0-24.094118 18.070588-42.164706 42.164706-42.164706s42.164706 18.070588 42.164706 42.164706v42.164706c0 216.847059 174.682353 397.552941 391.529412 397.552941h12.047059c216.847059-6.023529 391.529412-180.705882 391.529412-397.552941v-42.164706c0-24.094118 18.070588-42.164706 42.164705-42.164706 24.094118 0 42.164706 18.070588 42.164706 42.164706v42.164706c-6.023529 216.847059-144.564706 397.552941-337.317647 457.788235zM349.364706 624.941176C349.364706 715.294118 421.647059 793.6 512 793.6s162.635294-72.282353 162.635294-168.658824c0-90.352941-66.258824-162.635294-150.588235-162.635294h-6.02353-6.023529C421.647059 462.305882 349.364706 534.588235 349.364706 624.941176zM512 305.694118c-24.094118 0-42.164706-18.070588-42.164706-42.164706v-174.682353c0-24.094118 18.070588-42.164706 42.164706-42.164706s42.164706 18.070588 42.164706 42.164706v174.682353c0 24.094118-18.070588 42.164706-42.164706 42.164706zM512-61.741176m-42.164706 0a42.164706 42.164706 0 1 1 84.329412 0 42.164706 42.164706 0 1 1-84.329412 0Z"  horiz-adv-x="1024" />

    
    <glyph glyph-name="huikuantongji" unicode="&#58931;" d="M963.764706-19.576471h-42.164706V697.223529c0 18.070588-12.047059 30.117647-30.117647 30.117647h-114.447059c-18.070588 0-30.117647-12.047059-30.117647-30.117647v-716.8h-102.4V697.223529c0 18.070588-12.047059 30.117647-30.117647 30.117647h-120.470588c-12.047059 0-30.117647-12.047059-30.117647-30.117647v-716.8H361.411765v289.129412c0 18.070588-12.047059 30.117647-30.117647 30.117647H216.847059c-18.070588 0-30.117647-12.047059-30.117647-30.117647v-289.129412H114.447059v843.294118c0 18.070588-12.047059 30.117647-30.117647 30.117647H60.235294C42.164706 853.835294 30.117647 841.788235 30.117647 823.717647v-933.647059H963.764706c18.070588 0 30.117647 12.047059 30.117647 30.117647v30.117647c0 18.070588-12.047059 30.117647-30.117647 30.117647z"  horiz-adv-x="1024" />

    
    <glyph glyph-name="jiaoseguanli" unicode="&#58932;" d="M668.611765 450.258824c48.188235 42.164706 84.329412 108.423529 84.329411 186.729411 0 138.541176-108.423529 246.964706-240.941176 246.964706s-240.941176-108.423529-240.941176-246.964706c0-72.282353 30.117647-138.541176 84.329411-186.729411C168.658824 384 30.117647 203.294118 30.117647-7.529412v-42.164706c0-24.094118 18.070588-48.188235 48.188235-48.188235s42.164706 30.117647 42.164706 54.211765v42.164706c0 216.847059 174.682353 391.529412 391.529412 391.529411s391.529412-174.682353 391.529412-391.529411v-42.164706c0-24.094118 18.070588-48.188235 48.188235-48.188236s48.188235 18.070588 48.188235 48.188236v42.164706c-6.023529 210.823529-144.564706 391.529412-331.294117 451.764706zM512 787.576471c78.305882 0 144.564706-66.258824 144.564706-150.588236S590.305882 486.4 512 486.4 367.435294 552.658824 367.435294 636.988235s66.258824 150.588235 144.564706 150.588236zM451.764706 359.905882l-24.094118-343.341176 96.376471-132.517647 96.37647 132.517647-36.141176 343.341176H451.764706zM524.047059-7.529412l-36.141177 48.188236 18.070589 259.011764h18.070588l30.117647-259.011764-30.117647-48.188236z"  horiz-adv-x="1024" />

    
    <glyph glyph-name="yijiaokuanguanli" unicode="&#58935;" d="M945.694118 528.564706c-24.094118 0-48.188235-18.070588-48.188236-48.188235v-433.694118c0-36.141176-30.117647-66.258824-66.258823-66.258824H186.729412c-36.141176 0-66.258824 30.117647-66.258824 66.258824V697.223529c0 36.141176 30.117647 66.258824 66.258824 66.258824h325.270588c24.094118 0 48.188235 18.070588 48.188235 48.188235S536.094118 853.835294 512 853.835294H186.729412C102.4 853.835294 30.117647 781.552941 30.117647 697.223529v-656.564705c0-84.329412 72.282353-156.611765 156.611765-156.611765H843.294118c84.329412 0 156.611765 72.282353 156.611764 156.611765V480.376471c-6.023529 24.094118-24.094118 48.188235-54.211764 48.188235zM716.8 679.152941h259.011765c24.094118 0 42.164706 18.070588 42.164706 42.164706 0 24.094118-18.070588 42.164706-42.164706 42.164706h-259.011765c-24.094118 0-42.164706-18.070588-42.164706-42.164706 0-24.094118 18.070588-42.164706 42.164706-42.164706zM891.482353 588.8V853.835294c0 24.094118-18.070588 42.164706-42.164706 42.164706-24.094118 0-42.164706-18.070588-42.164706-42.164706V594.823529c0-24.094118 18.070588-42.164706 42.164706-42.164705 24.094118-6.023529 42.164706 12.047059 42.164706 36.141176zM451.764706 558.682353c-18.070588 18.070588-42.164706 18.070588-60.235294 0-18.070588-18.070588-18.070588-42.164706 0-60.235294l18.070588-24.094118h-30.117647c-24.094118 0-42.164706-18.070588-42.164706-42.164706 0-24.094118 18.070588-42.164706 42.164706-42.164706h84.329412v-30.117647H379.482353c-24.094118 0-42.164706-18.070588-42.164706-42.164706 0-24.094118 18.070588-42.164706 42.164706-42.164705h84.329412v-114.447059c0-24.094118 18.070588-42.164706 42.164706-42.164706 24.094118 0 42.164706 18.070588 42.164705 42.164706v114.447059h84.329412c24.094118 0 42.164706 18.070588 42.164706 42.164705 0 24.094118-18.070588 42.164706-42.164706 42.164706H554.164706v30.117647h84.329412c24.094118 0 42.164706 18.070588 42.164706 42.164706 0 24.094118-18.070588 42.164706-42.164706 42.164706h-30.117647l24.094117 24.094118c18.070588 18.070588 18.070588 42.164706 0 60.235294-18.070588 18.070588-42.164706 18.070588-60.235294 0l-60.235294-60.235294-60.235294 60.235294z"  horiz-adv-x="1024" />

    
    <glyph glyph-name="qudaoguanli" unicode="&#58936;" d="M716.8 739.388235L499.952941 865.882353 277.082353 739.388235v-252.988235l216.847059-126.494118 216.847059 126.494118V739.388235z m-90.352941-198.77647L499.952941 462.305882 367.435294 540.611765V685.176471l126.494118 72.282353 126.494117-72.282353v-144.564706zM789.082353 408.094118l-216.847059-126.494118v-252.988235l216.847059-126.494118 216.847059 126.494118v252.988235l-216.847059 126.494118z m132.517647-325.270589l-126.494118-72.282353-132.517647 72.282353V233.411765l126.494118 72.282353 126.494118-72.282353v-150.588236zM48.188235 281.6v-252.988235l216.847059-126.494118L481.882353 28.611765v252.988235L265.035294 408.094118 48.188235 281.6z m343.341177-198.776471l-126.494118-72.282353-126.494118 72.282353V233.411765l126.494118 72.282353L391.529412 233.411765v-150.588236z"  horiz-adv-x="1024" />

    
    <glyph glyph-name="yuangongguanli" unicode="&#58937;" d="M644.517647 414.117647c48.188235 30.117647 84.329412 90.352941 84.329412 150.588235 0 102.4-78.305882 180.705882-180.705883 180.705883s-180.705882-78.305882-180.705882-180.705883c0-66.258824 36.141176-120.470588 84.329412-150.588235-126.494118-36.141176-210.823529-150.588235-210.82353-289.129412v-24.094117c0-24.094118 18.070588-48.188235 48.188236-48.188236s48.188235 18.070588 48.188235 48.188236v24.094117c0 120.470588 96.376471 216.847059 216.847059 216.847059s216.847059-96.376471 216.847059-216.847059v-24.094117c0-24.094118 18.070588-48.188235 48.188235-48.188236s48.188235 18.070588 48.188235 48.188236v24.094117c-12.047059 138.541176-102.4 252.988235-222.870588 289.129412zM548.141176 661.082353c48.188235 0 90.352941-42.164706 90.352942-90.352941s-42.164706-90.352941-90.352942-90.352941-90.352941 36.141176-90.352941 90.352941c0 48.188235 36.141176 90.352941 90.352941 90.352941zM819.2 865.882353h-542.117647C192.752941 865.882353 126.494118 799.623529 126.494118 715.294118v-662.588236c0-84.329412 66.258824-150.588235 150.588235-150.588235h542.117647c84.329412 0 150.588235 66.258824 150.588235 150.588235V715.294118c0 84.329412-72.282353 150.588235-150.588235 150.588235z m60.235294-813.176471c0-36.141176-24.094118-60.235294-60.235294-60.235294h-542.117647c-36.141176 0-60.235294 24.094118-60.235294 60.235294V715.294118c0 36.141176 24.094118 60.235294 60.235294 60.235294h542.117647c36.141176 0 60.235294-24.094118 60.235294-60.235294v-662.588236z"  horiz-adv-x="1024" />

    
    <glyph glyph-name="xianxiahuankuan" unicode="&#58939;" d="M939.670588 516.517647h-60.235294V793.6c0 42.164706-30.117647 72.282353-72.282353 72.282353H295.152941c-36.141176 0-72.282353-30.117647-72.282353-72.282353v-277.082353h-60.235294c-36.141176 0-66.258824-30.117647-66.258823-66.258823v-481.882353c0-36.141176 30.117647-66.258824 66.258823-66.258824h777.035294c36.141176 0 66.258824 30.117647 66.258824 66.258824v481.882353c0 36.141176-30.117647 66.258824-66.258824 66.258823zM313.223529 775.529412h481.882353v-656.564706h-481.882353V775.529412z m602.352942-783.058824H186.729412V426.164706h36.141176v-319.247059c0-42.164706 30.117647-72.282353 72.282353-72.282353h512c42.164706 0 72.282353 30.117647 72.282353 72.282353V426.164706h36.141177V-7.529412zM632.470588 444.235294l-48.188235-48.188235V643.011765c0 24.094118-18.070588 42.164706-42.164706 42.164706s-36.141176-18.070588-36.141176-42.164706v-246.964706l-48.188236 48.188235c-18.070588 18.070588-42.164706 18.070588-60.235294 0-18.070588-18.070588-18.070588-42.164706 0-60.235294l114.447059-120.470588c6.023529-6.023529 18.070588-12.047059 30.117647-12.047059s24.094118 6.023529 30.117647 12.047059l114.447059 120.470588c18.070588 18.070588 18.070588 42.164706 0 60.235294-12.047059 18.070588-42.164706 18.070588-54.211765 0z"  horiz-adv-x="1024" />

    
    <glyph glyph-name="qudaofeiyong" unicode="&#58940;" d="M861.364706 865.882353h-84.329412c-24.094118 0-48.188235-18.070588-48.188235-48.188235s18.070588-42.164706 42.164706-42.164706h84.329411c24.094118 0 48.188235-24.094118 48.188236-42.164706v-698.729412c0-24.094118-18.070588-42.164706-42.164706-42.164706H162.635294c-18.070588 0-42.164706 24.094118-42.164706 42.164706V733.364706c0 18.070588 24.094118 42.164706 42.164706 42.164706h84.329412c24.094118 0 48.188235 18.070588 48.188235 48.188235S277.082353 865.882353 252.988235 865.882353H162.635294C90.352941 865.882353 30.117647 805.647059 30.117647 733.364706v-698.729412c0-72.282353 60.235294-132.517647 132.517647-132.517647h698.729412c72.282353 0 132.517647 60.235294 132.517647 132.517647V733.364706c0 72.282353-60.235294 132.517647-132.517647 132.517647zM379.482353 775.529412h259.011765c24.094118 0 42.164706 18.070588 42.164706 42.164706 0 24.094118-18.070588 42.164706-42.164706 42.164706H379.482353c-24.094118 0-42.164706-18.070588-42.164706-42.164706 0-24.094118 18.070588-42.164706 42.164706-42.164706zM379.482353 390.023529c-24.094118 0-42.164706-18.070588-42.164706-42.164705 0-24.094118 18.070588-42.164706 42.164706-42.164706h84.329412v-114.447059c0-24.094118 18.070588-42.164706 42.164706-42.164706 24.094118 0 42.164706 18.070588 42.164705 42.164706V299.670588h84.329412c24.094118 0 42.164706 18.070588 42.164706 42.164706 0 24.094118-18.070588 42.164706-42.164706 42.164706H554.164706v36.141176h84.329412c24.094118 0 42.164706 18.070588 42.164706 42.164706 0 24.094118-18.070588 42.164706-42.164706 42.164706h-30.117647l24.094117 24.094118c18.070588 18.070588 18.070588 42.164706 0 60.235294-18.070588 18.070588-42.164706 18.070588-60.235294 0l-60.235294-60.235294-60.235294 60.235294c-18.070588 18.070588-42.164706 18.070588-60.235294 0-18.070588-18.070588-18.070588-42.164706 0-60.235294l24.094117-24.094118h-36.141176c-24.094118 0-42.164706-18.070588-42.164706-42.164706 0-24.094118 18.070588-42.164706 42.164706-42.164706h84.329412v-30.117647H379.482353z"  horiz-adv-x="1024" />

    
    <glyph glyph-name="zidongjujue" unicode="&#58941;" d="M783.058824 811.670588H240.941176C126.494118 811.670588 30.117647 715.294118 30.117647 600.847059v-457.788235C30.117647 28.611765 126.494118-67.764706 240.941176-67.764706h542.117648c114.447059 0 210.823529 96.376471 210.823529 210.82353V600.847059c0 114.447059-96.376471 210.823529-210.823529 210.823529z m120.470588-668.611764c0-66.258824-54.211765-114.447059-114.447059-114.447059H240.941176c-66.258824 0-114.447059 54.211765-114.447058 114.447059V600.847059C120.470588 667.105882 174.682353 715.294118 240.941176 715.294118h542.117648c66.258824 0 120.470588-48.188235 120.470588-114.447059v-457.788235zM698.729412 558.682353c-18.070588 18.070588-42.164706 18.070588-60.235294 0l-120.470589-120.470588-120.470588 120.470588c-18.070588 18.070588-42.164706 18.070588-60.235294 0s-18.070588-42.164706 0-60.235294l120.470588-120.470588-120.470588-120.470589c-18.070588-18.070588-18.070588-42.164706 0-60.235294s42.164706-18.070588 60.235294 0l120.470588 120.470588 120.470589-120.470588c18.070588-18.070588 42.164706-18.070588 60.235294 0s18.070588 42.164706 0 60.235294l-120.470588 120.470589 120.470588 120.470588c12.047059 12.047059 12.047059 42.164706 0 60.235294z"  horiz-adv-x="1024" />

    
    <glyph glyph-name="yuqihuikuantongji" unicode="&#58942;" d="M951.717647 480.376471c-24.094118 0-42.164706-18.070588-42.164706-42.164706v-463.811765c0-24.094118 18.070588-42.164706 42.164706-42.164706s42.164706 18.070588 42.164706 42.164706V438.211765c0 24.094118-18.070588 42.164706-42.164706 42.164706zM367.435294 480.376471c-24.094118 0-42.164706-18.070588-42.164706-42.164706v-463.811765c0-24.094118 18.070588-42.164706 42.164706-42.164706s42.164706 18.070588 42.164706 42.164706V438.211765c0 24.094118-18.070588 42.164706-42.164706 42.164706zM72.282353 317.741176c-24.094118 0-42.164706-18.070588-42.164706-42.164705v-295.152942c0-24.094118 18.070588-42.164706 42.164706-42.164705s48.188235 12.047059 48.188235 36.141176v295.152941c0 30.117647-24.094118 48.188235-48.188235 48.188235zM656.564706 317.741176c-24.094118 0-42.164706-18.070588-42.164706-42.164705v-295.152942c0-24.094118 18.070588-42.164706 42.164706-42.164705 24.094118 0 42.164706 18.070588 42.164706 42.164705v295.152942c6.023529 24.094118-18.070588 42.164706-42.164706 42.164705zM951.717647 896h-174.682353c-24.094118 0-42.164706-18.070588-42.164706-42.164706 0-24.094118 18.070588-42.164706 42.164706-42.164706h84.329412l-240.941177-240.941176L421.647059 763.482353c-18.070588 18.070588-42.164706 18.070588-60.235294 0L42.164706 444.235294c-18.070588-18.070588-18.070588-42.164706 0-60.235294 18.070588-18.070588 42.164706-18.070588 60.235294 0l289.129412 289.129412L590.305882 474.352941c18.070588-18.070588 42.164706-18.070588 60.235294 0L903.529412 733.364706v-54.211765c0-24.094118 18.070588-42.164706 42.164706-42.164706s42.164706 18.070588 42.164706 42.164706V853.835294c6.023529 24.094118-12.047059 42.164706-36.141177 42.164706z"  horiz-adv-x="1024" />

    
    <glyph glyph-name="yunyingtongji" unicode="&#58943;" d="M873.411765 853.835294h-722.82353c-66.258824 0-120.470588-54.211765-120.470588-120.470588v-548.141177c0-66.258824 54.211765-120.470588 120.470588-120.470588h722.82353c66.258824 0 120.470588 54.211765 120.470588 120.470588V733.364706c0 66.258824-54.211765 120.470588-120.470588 120.470588z m30.117647-662.588235c0-18.070588-12.047059-30.117647-30.117647-30.117647h-722.82353c-18.070588 0-30.117647 12.047059-30.117647 30.117647v542.117647c0 18.070588 12.047059 30.117647 30.117647 30.117647h722.82353c18.070588 0 30.117647-12.047059 30.117647-30.117647v-542.117647zM777.035294-19.576471H246.964706c-24.094118 0-42.164706-18.070588-42.164706-42.164705 0-24.094118 18.070588-42.164706 42.164706-42.164706h524.047059c24.094118 0 42.164706 18.070588 42.164706 42.164706 6.023529 18.070588-12.047059 42.164706-36.141177 42.164705zM758.964706 582.776471L602.352941 432.188235 451.764706 582.776471c-12.047059 12.047059-18.070588 18.070588-30.117647 18.070588s-24.094118-6.023529-36.141177-18.070588l-180.705882-180.705883c-18.070588-18.070588-18.070588-42.164706 0-60.235294 18.070588-18.070588 42.164706-18.070588 60.235294 0L421.647059 492.423529l150.588235-150.588235c12.047059-12.047059 24.094118-18.070588 30.117647-18.070588 12.047059 0 24.094118 6.023529 30.117647 12.047059l180.705883 180.705882c18.070588 18.070588 18.070588 42.164706 0 60.235294-6.023529 24.094118-36.141176 24.094118-54.211765 6.02353z"  horiz-adv-x="1024" />

    
    <glyph glyph-name="zhifuyue" unicode="&#58944;" d="M867.388235 763.482353H156.611765C90.352941 763.482353 30.117647 709.270588 30.117647 636.988235v-536.094117c0-66.258824 54.211765-126.494118 126.494118-126.494118h716.8c66.258824 0 126.494118 54.211765 126.494117 126.494118V636.988235c-6.023529 72.282353-66.258824 126.494118-132.517647 126.494118zM156.611765 679.152941h716.8c24.094118 0 42.164706-18.070588 42.164706-42.164706v-60.235294H114.447059v60.235294c0 24.094118 18.070588 42.164706 42.164706 42.164706z m710.77647-620.423529H156.611765c-24.094118 0-42.164706 18.070588-42.164706 42.164706v180.705882h343.341176c24.094118 0 42.164706 18.070588 42.164706 42.164706 0 24.094118-18.070588 42.164706-42.164706 42.164706H114.447059v120.470588h795.105882v-391.529412c0-18.070588-18.070588-36.141176-42.164706-36.141176z"  horiz-adv-x="1024" />

    
    <glyph glyph-name="toguanli" unicode="&#58946;" d="M831.247059 727.341176h-30.117647V811.670588c0 24.094118-18.070588 42.164706-42.164706 42.164706s-48.188235-18.070588-48.188235-42.164706v-90.352941H343.341176V811.670588c0 24.094118-18.070588 42.164706-42.164705 42.164706s-48.188235-18.070588-48.188236-42.164706v-90.352941h-30.117647c-102.4 0-180.705882-78.305882-180.705882-180.705882v-469.835294c0-102.4 78.305882-180.705882 180.705882-180.705883h602.352941c102.4 0 180.705882 78.305882 180.705883 180.705883V546.635294c6.023529 102.4-78.305882 180.705882-174.682353 180.705882z m84.329412-650.541176c0-48.188235-42.164706-90.352941-90.352942-90.352941h-602.352941c-48.188235 0-90.352941 42.164706-90.352941 90.352941V546.635294c0 48.188235 42.164706 90.352941 90.352941 90.352941h30.117647V594.823529c0-24.094118 18.070588-42.164706 42.164706-42.164705s48.188235 18.070588 48.188235 42.164705v42.164706h373.458824V594.823529c0-24.094118 18.070588-42.164706 42.164706-42.164705s42.164706 18.070588 42.164706 42.164705v42.164706h30.117647c48.188235 0 90.352941-42.164706 90.352941-90.352941v-469.835294zM680.658824 444.235294H373.458824c-24.094118 0-42.164706-18.070588-42.164706-42.164706s18.070588-42.164706 42.164706-42.164706H481.882353v-252.988235c0-24.094118 18.070588-42.164706 42.164706-42.164706s42.164706 18.070588 42.164706 42.164706V359.905882h108.423529c24.094118 0 42.164706 18.070588 42.164706 42.164706s-12.047059 42.164706-36.141176 42.164706z"  horiz-adv-x="1024" />

    
    <glyph glyph-name="shujuxiaofei" unicode="&#58947;" d="M861.364706 877.929412h-90.352941c-24.094118 0-42.164706-18.070588-42.164706-42.164706s18.070588-42.164706 42.164706-42.164706h90.352941c24.094118 0 42.164706-18.070588 42.164706-48.188235v-710.776471c0-24.094118-18.070588-48.188235-42.164706-48.188235H162.635294c-24.094118 6.023529-42.164706 24.094118-42.164706 48.188235V745.411765c0 24.094118 18.070588 48.188235 42.164706 48.188235h90.352941c24.094118 0 42.164706 18.070588 42.164706 42.164706S271.058824 877.929412 246.964706 877.929412H162.635294C90.352941 877.929412 30.117647 817.694118 30.117647 745.411765v-710.776471c0-72.282353 60.235294-132.517647 132.517647-132.517647h698.729412c72.282353 0 132.517647 60.235294 132.517647 132.517647V745.411765c0 72.282353-60.235294 132.517647-132.517647 132.517647zM379.482353 793.6h259.011765c24.094118 0 42.164706 18.070588 42.164706 42.164706s-18.070588 42.164706-42.164706 42.164706H379.482353c-24.094118 0-42.164706-18.070588-42.164706-42.164706s18.070588-42.164706 42.164706-42.164706zM789.082353 516.517647H439.717647c-24.094118 0-48.188235-18.070588-48.188235-42.164706 0-24.094118 18.070588-42.164706 42.164706-42.164706H783.058824c24.094118 0 42.164706 18.070588 42.164705 42.164706 6.023529 24.094118-12.047059 42.164706-36.141176 42.164706zM789.082353 221.364706H439.717647c-24.094118 0-42.164706-18.070588-42.164706-42.164706 0-24.094118 18.070588-42.164706 42.164706-42.164706h349.364706c24.094118 0 42.164706 18.070588 42.164706 42.164706 0 24.094118-18.070588 42.164706-42.164706 42.164706zM222.870588 474.352941a42.164706 42.164706 0 1 1 84.329412 0 42.164706 42.164706 0 1 1-84.329412 0ZM222.870588 179.2a42.164706 42.164706 0 1 1 84.329412 0 42.164706 42.164706 0 1 1-84.329412 0Z"  horiz-adv-x="1024" />

    
    <glyph glyph-name="disanfangzhifu" unicode="&#58945;" d="M981.835294 715.294118c-168.658824 0-331.294118 48.188235-469.835294 138.541176l-60.235294-30.117647C325.270588 751.435294 180.705882 715.294118 36.141176 715.294118H30.117647v-427.670589c0-138.541176 84.329412-259.011765 210.823529-301.17647l271.058824-96.376471 271.058824 96.376471c126.494118 48.188235 210.823529 168.658824 210.823529 301.17647V715.294118h-12.047059zM903.529412 293.647059c0-102.4-60.235294-192.752941-150.588236-222.870588l-240.941176-84.329412-240.941176 84.329412C180.705882 100.894118 120.470588 191.247059 120.470588 287.623529V624.941176c132.517647 12.047059 259.011765 48.188235 373.458824 114.447059l12.047059 6.02353c120.470588-66.258824 252.988235-108.423529 391.529411-120.470589V293.647059zM355.388235 468.329412h54.211765c6.023529 30.117647 12.047059 60.235294 30.117647 72.282353 18.070588 18.070588 42.164706 24.094118 72.282353 24.094117s54.211765-6.023529 72.282353-24.094117c18.070588-12.047059 24.094118-36.141176 24.094118-60.235294s-6.023529-48.188235-24.094118-60.235295c-12.047059-12.047059-36.141176-18.070588-66.258824-18.070588H481.882353v-42.164706h36.141176c36.141176 0 60.235294-6.023529 78.305883-24.094117 18.070588-18.070588 30.117647-36.141176 30.117647-66.258824 0-30.117647-12.047059-48.188235-30.117647-72.282353-18.070588-18.070588-48.188235-30.117647-84.329412-30.117647-30.117647 0-54.211765 6.023529-72.282353 24.094118-24.094118 18.070588-36.141176 48.188235-36.141176 84.329412h-54.211765c6.023529-54.211765 24.094118-96.376471 54.211765-120.470589 30.117647-24.094118 66.258824-36.141176 108.423529-36.141176 48.188235 0 90.352941 12.047059 120.470588 42.164706 30.117647 30.117647 42.164706 60.235294 42.164706 108.423529 0 30.117647-6.023529 48.188235-24.094118 72.282353-12.047059 18.070588-36.141176 30.117647-66.258823 42.164706 54.211765 18.070588 78.305882 54.211765 78.305882 108.423529 0 42.164706-12.047059 72.282353-42.164706 96.376471-24.094118 18.070588-60.235294 24.094118-102.4 24.094118s-84.329412-12.047059-108.423529-36.141177c-30.117647-24.094118-48.188235-60.235294-54.211765-108.423529z"  horiz-adv-x="1024" />

    
    <glyph glyph-name="yuqiguanli" unicode="&#58948;" d="M903.529412 763.482353h-66.258824v48.188235c0 24.094118-18.070588 48.188235-48.188235 48.188236-24.094118 0-48.188235-18.070588-48.188235-48.188236v-180.705882c0-24.094118 18.070588-48.188235 48.188235-48.188235 24.094118 0 48.188235 18.070588 48.188235 48.188235v42.164706H903.529412c12.047059 0 24.094118-12.047059 24.094117-30.117647v-632.470589c0-18.070588-12.047059-30.117647-24.094117-30.117647H120.470588c-12.047059 0-24.094118 12.047059-24.094117 30.117647V649.035294c0 18.070588 12.047059 30.117647 24.094117 30.117647h66.258824V763.482353H120.470588C60.235294 763.482353 6.023529 709.270588 6.023529 649.035294v-632.470588c0-66.258824 48.188235-114.447059 114.447059-114.447059h783.058824c60.235294 0 114.447059 54.211765 114.447059 114.447059V649.035294c-6.023529 60.235294-54.211765 114.447059-114.447059 114.447059zM234.917647 582.776471c24.094118 0 48.188235 18.070588 48.188235 48.188235v180.705882c0 24.094118-18.070588 48.188235-48.188235 48.188236-24.094118 0-48.188235-18.070588-48.188235-48.188236v-180.705882c6.023529-24.094118 24.094118-48.188235 48.188235-48.188235zM385.505882 673.129412h252.988236c24.094118 0 42.164706 18.070588 42.164706 42.164706 0 24.094118-18.070588 42.164706-42.164706 42.164706H385.505882c-24.094118 6.023529-42.164706-12.047059-42.164706-36.141177 0-30.117647 18.070588-48.188235 42.164706-48.188235zM252.988235 64.752941l30.117647-30.117647c36.141176 54.211765 60.235294 78.305882 72.282353 78.305882 6.023529 0 12.047059 0 24.094118-12.047058 18.070588-18.070588 36.141176-36.141176 60.235294-42.164706 18.070588-6.023529 48.188235-6.023529 90.352941-12.047059H764.988235l12.047059 42.164706H512c-36.141176 0-60.235294 6.023529-78.305882 12.047059-18.070588 6.023529-30.117647 18.070588-42.164706 36.141176l-12.047059 12.047059V365.929412h-120.470588v-36.141177h84.329411v-174.682353c-30.117647-12.047059-60.235294-42.164706-90.352941-90.352941zM620.423529 371.952941h36.141177v-180.705882h-36.141177zM367.435294 438.211765l30.117647 30.117647c-24.094118 30.117647-60.235294 60.235294-102.4 90.352941l-30.117647-30.117647c42.164706-30.117647 78.305882-60.235294 102.4-90.352941zM608.376471 558.682353h-36.141177c-48.188235-42.164706-108.423529-84.329412-168.658823-120.470588l18.070588-30.117647c24.094118 12.047059 42.164706 24.094118 66.258823 42.164706v-24.094118h186.729412v30.117647c24.094118-18.070588 48.188235-36.141176 78.305882-48.188235l24.094118 30.117647c-60.235294 30.117647-120.470588 72.282353-168.658823 120.470588zM505.976471 456.282353c30.117647 18.070588 54.211765 42.164706 84.329411 66.258823 24.094118-24.094118 48.188235-48.188235 78.305883-66.258823H505.976471zM638.494118 118.964706h54.211764c30.117647 0 42.164706 18.070588 42.164706 48.188235V390.023529h-36.141176V173.176471c0-12.047059-6.023529-24.094118-18.070588-24.094118h-48.188236l6.02353-30.117647zM530.070588 149.082353h-24.094117l6.023529-36.141177H542.117647c24.094118 0 42.164706 12.047059 42.164706 42.164706V384H439.717647v-265.035294h36.141177v90.352941H542.117647v-42.164706c0-12.047059-6.023529-18.070588-12.047059-18.070588z m-54.211764 198.776471H542.117647v-42.164706H475.858824v42.164706z m0-108.42353v42.164706H542.117647v-42.164706H475.858824z"  horiz-adv-x="1024" />

    
    <glyph glyph-name="fengkongguanli1" unicode="&#58949;" d="M981.835294 727.341176c-168.658824 0-331.294118 48.188235-469.835294 138.541177l-60.235294-30.117647C325.270588 763.482353 180.705882 727.341176 36.141176 727.341176H30.117647v-427.670588c0-138.541176 84.329412-259.011765 210.823529-301.17647l271.058824-96.376471 271.058824 96.376471c126.494118 48.188235 210.823529 168.658824 210.823529 301.17647V727.341176h-12.047059z m-78.305882-421.647058c0-102.4-60.235294-192.752941-150.588236-222.870589l-240.941176-84.329411-240.941176 84.329411C180.705882 118.964706 120.470588 203.294118 120.470588 299.670588V643.011765c132.517647 12.047059 259.011765 48.188235 373.458824 114.447059l12.047059 6.023529c120.470588-66.258824 252.988235-108.423529 391.529411-120.470588v-337.317647zM367.435294 486.4v-126.494118c0-42.164706 24.094118-78.305882 66.258824-90.352941l78.305882-30.117647 78.305882 30.117647c36.141176 12.047059 66.258824 48.188235 66.258824 90.352941V486.4c-48.188235 0-96.376471 12.047059-138.541177 42.164706l-24.094117-12.047059c-36.141176-18.070588-78.305882-30.117647-126.494118-30.117647z"  horiz-adv-x="1024" />

    
    <glyph glyph-name="kehufankui" unicode="&#58938;" d="M560.188235 390.023529c78.305882 0 156.611765-24.094118 222.870589-72.282353 18.070588-12.047059 48.188235-6.023529 60.235294 12.047059 12.047059 18.070588 6.023529 48.188235-12.047059 60.235294-36.141176 24.094118-78.305882 42.164706-114.447059 60.235295 54.211765 48.188235 90.352941 114.447059 90.352941 192.752941 0 138.541176-108.423529 252.988235-246.964706 252.988235S313.223529 781.552941 313.223529 643.011765c0-78.305882 36.141176-144.564706 90.352942-192.752941-192.752941-66.258824-331.294118-252.988235-331.294118-463.811765v-42.164706c0-24.094118 18.070588-42.164706 42.164706-42.164706s42.164706 18.070588 42.164706 42.164706v42.164706c-6.023529 216.847059 174.682353 403.576471 403.57647 403.57647-6.023529 0-6.023529 0 0 0-6.023529 0 0 0 0 0z m-6.023529 415.62353c84.329412 0 156.611765-72.282353 156.611765-162.635294 0-90.352941-72.282353-162.635294-156.611765-162.635294S397.552941 552.658824 397.552941 643.011765c0 90.352941 72.282353 162.635294 156.611765 162.635294zM921.6 305.694118l-337.317647-343.341177-6.023529-90.352941 90.352941 6.023529 337.317647 343.341177z"  horiz-adv-x="1024" />

    
    <glyph glyph-name="qudaotongji1" unicode="&#58950;" d="M963.764706 239.435294c-18.070588 6.023529-42.164706 0-54.211765-24.094118-72.282353-180.705882-259.011765-283.105882-451.764706-259.011764-192.752941 24.094118-343.341176 174.682353-373.458823 367.435294C60.235294 516.517647 162.635294 703.247059 343.341176 781.552941c18.070588 6.023529 24.094118 30.117647 18.070589 54.211765-6.023529 18.070588-30.117647 24.094118-54.211765 18.070588-210.823529-90.352941-331.294118-313.223529-301.176471-542.117647s210.823529-403.576471 439.717647-433.694118c24.094118 0 42.164706-6.023529 66.258824-6.023529 204.8 0 391.529412 120.470588 469.835294 313.223529 12.047059 24.094118 0 42.164706-18.070588 54.211765zM873.411765 745.411765C777.035294 841.788235 650.541176 896 512 896c-18.070588 0-36.141176-18.070588-36.141176-42.164706v-469.835294c0-24.094118 18.070588-42.164706 42.164705-42.164706h469.835295c24.094118 0 42.164706 18.070588 42.164705 42.164706-6.023529 138.541176-60.235294 265.035294-156.611764 361.411765zM554.164706 426.164706V811.670588c102.4-12.047059 192.752941-54.211765 265.035294-126.494117s114.447059-162.635294 126.494118-265.035295H554.164706z"  horiz-adv-x="1030" />

    
    <glyph glyph-name="kehuguanli1" unicode="&#58951;" d="M530.070588 377.976471c84.329412 0 162.635294-24.094118 228.894118-72.282353 18.070588-12.047059 48.188235-6.023529 60.235294 12.047058 12.047059 18.070588 6.023529 48.188235-12.047059 60.235295-36.141176 24.094118-78.305882 42.164706-120.470588 60.235294 54.211765 48.188235 90.352941 120.470588 90.352941 198.77647C783.058824 775.529412 668.611765 896 530.070588 896S277.082353 775.529412 277.082353 636.988235c0-78.305882 36.141176-150.588235 90.352941-198.77647C168.658824 371.952941 24.094118 185.223529 24.094118-37.647059v-42.164706c0-24.094118 18.070588-42.164706 42.164706-42.164706s42.164706 18.070588 42.164705 42.164706v42.164706c6.023529 228.894118 192.752941 409.6 421.647059 415.62353z m0 421.647058c90.352941 0 162.635294-72.282353 162.635294-168.658823 0-90.352941-72.282353-168.658824-162.635294-168.658824S367.435294 540.611765 367.435294 636.988235c0 90.352941 72.282353 162.635294 162.635294 162.635294zM632.470588 112.941176c0-24.094118 18.070588-42.164706 48.188236-42.164705h277.082352c24.094118 0 48.188235 18.070588 48.188236 42.164705s-18.070588 42.164706-48.188236 42.164706h-277.082352c-30.117647 6.023529-48.188235-18.070588-48.188236-42.164706zM951.717647-25.6h-277.082353c-24.094118 0-48.188235-18.070588-48.188235-42.164706s18.070588-42.164706 48.188235-42.164706h277.082353c24.094118 0 48.188235 18.070588 48.188235 42.164706s-24.094118 42.164706-48.188235 42.164706z"  horiz-adv-x="1024" />

    
    <glyph glyph-name="denglurizhi1" unicode="&#58953;" d="M90.352941 636.988235c24.094118 0 42.164706 18.070588 42.164706 42.164706v54.211765c0 36.141176 30.117647 72.282353 72.282353 72.282353h481.882353c24.094118 0 42.164706 18.070588 42.164706 42.164706s-18.070588 42.164706-42.164706 42.164706h-481.882353C120.470588 889.976471 48.188235 823.717647 48.188235 733.364706v-54.211765c0-24.094118 18.070588-42.164706 42.164706-42.164706zM909.552941 679.152941c-24.094118 0-42.164706-18.070588-42.164706-42.164706v-590.305882c0-36.141176-30.117647-72.282353-72.282353-72.282353H204.8c-36.141176 0-72.282353 30.117647-72.282353 72.282353v54.211765c0 24.094118-18.070588 42.164706-42.164706 42.164706s-42.164706-18.070588-42.164706-42.164706v-54.211765c0-84.329412 72.282353-156.611765 156.611765-156.611765h590.305882c84.329412 0 156.611765 72.282353 156.611765 156.611765V636.988235c6.023529 24.094118-18.070588 42.164706-42.164706 42.164706zM626.447059 570.729412c18.070588-18.070588 48.188235-18.070588 66.258823 0l240.941177 240.941176c18.070588 18.070588 18.070588 48.188235 0 66.258824s-48.188235 18.070588-66.258824 0l-240.941176-240.941177c-18.070588-18.070588-18.070588-48.188235 0-66.258823zM265.035294 221.364706h469.835294c24.094118 0 48.188235 24.094118 48.188236 48.188235s-24.094118 48.188235-48.188236 48.188235H265.035294c-24.094118 0-48.188235-24.094118-48.188235-48.188235s18.070588-48.188235 48.188235-48.188235zM265.035294 347.858824h228.894118c24.094118 0 48.188235 24.094118 48.188235 48.188235s-24.094118 48.188235-48.188235 48.188235H265.035294c-24.094118 0-48.188235-24.094118-48.188235-48.188235s18.070588-48.188235 48.188235-48.188235zM90.352941 528.564706m-48.188235 0a48.188235 48.188235 0 1 1 96.37647 0 48.188235 48.188235 0 1 1-96.37647 0ZM90.352941 287.623529m-48.188235 0a48.188235 48.188235 0 1 1 96.37647 0 48.188235 48.188235 0 1 1-96.37647 0Z"  horiz-adv-x="1024" />

    
    <glyph glyph-name="guanggaoguanli" unicode="&#58952;" d="M903.529412 853.835294H120.470588C72.282353 853.835294 30.117647 817.694118 30.117647 763.482353v-614.4c0-48.188235 36.141176-90.352941 90.352941-90.352941h783.058824c48.188235 0 90.352941 36.141176 90.352941 90.352941V763.482353c0 48.188235-36.141176 90.352941-90.352941 90.352941zM120.470588 149.082353V763.482353h783.058824v-614.4H120.470588zM777.035294-25.6H246.964706c-24.094118 0-42.164706-18.070588-42.164706-42.164706 0-24.094118 18.070588-42.164706 42.164706-42.164706h524.047059c24.094118 0 42.164706 18.070588 42.164706 42.164706 6.023529 24.094118-12.047059 42.164706-36.141177 42.164706zM704.752941 504.470588L445.741176 673.129412l-6.023529 6.023529h-12.047059c-18.070588 0-36.141176-18.070588-36.141176-36.141176V293.647059l6.023529-6.02353c6.023529-6.023529 12.047059-12.047059 24.094118-18.070588h18.070588l265.035294 174.682353 12.047059 12.047059c6.023529 12.047059 0 36.141176-12.047059 48.188235zM451.764706 347.858824V600.847059L638.494118 474.352941 451.764706 347.858824z"  horiz-adv-x="1024" />

    
    <glyph glyph-name="xianjinjuanguanli" unicode="&#58954;" d="M975.811765 504.470588c30.117647 18.070588 48.188235 42.164706 48.188235 72.282353V655.058824c0 78.305882-60.235294 138.541176-138.541176 138.541176H144.564706C66.258824 793.6 6.023529 733.364706 6.023529 655.058824v-84.329412c0-30.117647 18.070588-54.211765 42.164706-72.282353 36.141176-18.070588 54.211765-54.211765 54.211765-96.376471 0-36.141176-18.070588-72.282353-54.211765-96.37647-24.094118-18.070588-42.164706-42.164706-42.164706-72.282353v-84.329412c0-78.305882 60.235294-138.541176 138.541177-138.541177h740.894118c78.305882 0 138.541176 60.235294 138.541176 138.541177v78.305882c0 30.117647-18.070588 54.211765-48.188235 72.282353-36.141176 18.070588-66.258824 54.211765-66.258824 96.376471 6.023529 54.211765 30.117647 90.352941 66.258824 108.423529z m-42.164706 84.329412c-66.258824-36.141176-108.423529-102.4-108.42353-174.682353s42.164706-144.564706 108.42353-174.682353v-72.282353c0-24.094118-24.094118-48.188235-48.188235-48.188235H144.564706c-24.094118 0-48.188235 24.094118-48.188235 48.188235v78.305883c60.235294 36.141176 96.376471 102.4 96.37647 168.658823 0 72.282353-36.141176 132.517647-96.37647 168.658824V655.058824c0 24.094118 24.094118 48.188235 48.188235 48.188235h740.894118c24.094118 0 48.188235-24.094118 48.188235-48.188235v-66.258824zM301.176471 582.776471c-24.094118 0-42.164706-24.094118-42.164706-48.188236v-283.105882c0-24.094118 18.070588-42.164706 42.164706-42.164706 24.094118 0 42.164706 18.070588 42.164705 42.164706V534.588235c6.023529 24.094118-12.047059 48.188235-42.164705 48.188236z"  horiz-adv-x="1024" />

    
    <glyph glyph-name="guanyuwomen" unicode="&#58955;" d="M919.204678 584.608187c0 5.988304-5.988304 5.988304-5.988304 11.976608L637.754386 872.046784c-5.988304 5.988304-5.988304 5.988304-11.976608 5.988304H236.538012c-71.859649 0-131.74269-59.883041-131.74269-131.74269v-742.549708c0-71.859649 59.883041-131.74269 131.74269-131.74269h556.91228c71.859649 0 131.74269 59.883041 131.74269 131.74269V572.631579c-5.988304 5.988304-5.988304 5.988304-5.988304 11.976608z m-275.461988 173.660819l149.707602-149.707602h-149.707602V758.269006z m143.719298-796.444445H236.538012c-29.94152 0-53.894737 23.953216-53.894737 53.894737V758.269006c0 29.94152 23.953216 53.894737 53.894737 53.894737h335.345029v-239.532164c0-23.953216 17.964912-35.929825 35.929824-35.929825h239.532164v-514.994152c0-35.929825-29.94152-59.883041-59.883041-59.883041zM697.637427 381.005848H326.362573c-23.953216 0-35.929825-17.964912-35.929824-41.918129s11.976608-35.929825 35.929824-35.929824h371.274854c23.953216 0 35.929825 17.964912 35.929824 35.929824s-11.976608 41.918129-35.929824 41.918129zM697.637427 195.368421H326.362573c-23.953216 0-35.929825-17.964912-35.929824-35.929825 0-23.953216 11.976608-41.918129 35.929824-41.918128h371.274854c23.953216 0 35.929825 17.964912 35.929824 35.929824 0 23.953216-11.976608 41.918129-35.929824 41.918129zM326.362573 488.795322H422.175439c23.953216 0 35.929825 17.964912 35.929824 35.929824s-17.964912 35.929825-35.929824 35.929825H326.362573c-23.953216 0-35.929825-11.976608-35.929824-35.929825s11.976608-35.929825 35.929824-35.929824z"  horiz-adv-x="1024" />

    
    <glyph glyph-name="kefutongji" unicode="&#58956;" d="M909.552941 546.635294h-42.164706C855.341176 733.364706 704.752941 889.976471 512 889.976471s-349.364706-150.588235-361.411765-343.341177h-36.141176C48.188235 546.635294 0 498.447059 0 432.188235V353.882353c0-60.235294 48.188235-114.447059 114.447059-114.447059h36.141176c42.164706 0 78.305882 36.141176 78.305883 78.305882V528.564706c0 156.611765 126.494118 283.105882 283.105882 283.105882s283.105882-126.494118 283.105882-283.105882v-265.035294c0-114.447059-78.305882-210.823529-186.729411-240.941177-12.047059 18.070588-36.141176 30.117647-60.235295 30.117647H475.858824c-42.164706 0-78.305882-36.141176-78.305883-78.305882 0-42.164706 36.141176-78.305882 78.305883-78.305882h78.305882c30.117647 0 60.235294 18.070588 72.282353 48.188235 138.541176 30.117647 240.941176 150.588235 252.988235 295.152941h36.141177c60.235294 0 114.447059 48.188235 114.447058 114.447059V432.188235c-6.023529 66.258824-60.235294 114.447059-120.470588 114.447059zM114.447059 317.741176c-18.070588 0-36.141176 18.070588-36.141177 36.141177V432.188235c0 18.070588 18.070588 36.141176 36.141177 36.141177h36.141176v-150.588236h-36.141176z m831.247059 42.164706c0-18.070588-18.070588-36.141176-36.141177-36.141176h-36.141176V468.329412h36.141176c18.070588 0 36.141176-18.070588 36.141177-36.141177v-72.282353z"  horiz-adv-x="1030" />

    
    <glyph glyph-name="lianxikefu" unicode="&#58957;" d="M879.435294 859.858824H144.564706C66.258824 859.858824 0 793.6 0 709.270588v-728.847059c0-18.070588 6.023529-30.117647 18.070588-36.141176 6.023529-6.023529 12.047059-6.023529 24.094118-6.023529 6.023529 0 12.047059 0 18.070588 6.023529l198.776471 102.4h614.4c84.329412 0 150.588235 66.258824 150.588235 150.588235V709.270588C1024 793.6 957.741176 859.858824 879.435294 859.858824z m60.235294-674.635295c0-36.141176-30.117647-60.235294-60.235294-60.235294H252.988235c-6.023529 0-12.047059 0-18.070588-6.023529L84.329412 52.705882V709.270588c0 36.141176 30.117647 60.235294 60.235294 60.235294h728.847059c36.141176 0 60.235294-30.117647 60.235294-60.235294v-524.047059zM252.988235 450.258824m-54.211764 0a54.211765 54.211765 0 1 1 108.423529 0 54.211765 54.211765 0 1 1-108.423529 0ZM825.223529 450.258824m-54.211764 0a54.211765 54.211765 0 1 1 108.423529 0 54.211765 54.211765 0 1 1-108.423529 0ZM536.094118 450.258824m-54.211765 0a54.211765 54.211765 0 1 1 108.423529 0 54.211765 54.211765 0 1 1-108.423529 0Z"  horiz-adv-x="1024" />

    
    <glyph glyph-name="wodexianxiahuankuan" unicode="&#58958;" d="M903.529412 853.835294H120.470588C72.282353 853.835294 30.117647 817.694118 30.117647 763.482353v-614.4c0-48.188235 36.141176-90.352941 90.352941-90.352941h783.058824c48.188235 0 90.352941 36.141176 90.352941 90.352941V763.482353c0 48.188235-36.141176 90.352941-90.352941 90.352941zM120.470588 149.082353V763.482353h783.058824v-614.4H120.470588zM777.035294-25.6H246.964706c-24.094118 0-42.164706-18.070588-42.164706-42.164706 0-24.094118 18.070588-42.164706 42.164706-42.164706h524.047059c24.094118 0 42.164706 18.070588 42.164706 42.164706 6.023529 24.094118-12.047059 42.164706-36.141177 42.164706zM620.423529 450.258824l-54.211764-54.211765V667.105882c0 24.094118-24.094118 48.188235-48.188236 48.188236s-48.188235-24.094118-48.188235-48.188236v-271.058823l-54.211765 54.211765c-18.070588 18.070588-54.211765 18.070588-72.282353 0-18.070588-18.070588-18.070588-48.188235 0-66.258824L481.882353 245.458824c6.023529-6.023529 12.047059-6.023529 18.070588-12.047059h18.070588c6.023529 0 12.047059 0 18.070589 6.023529 6.023529 0 12.047059 6.023529 18.070588 12.047059l138.541176 138.541176c18.070588 18.070588 18.070588 48.188235 0 66.258824-24.094118 12.047059-54.211765 12.047059-72.282353-6.023529z"  horiz-adv-x="1024" />

    
    <glyph glyph-name="shoukuanqudao" unicode="&#58959;" d="M849.317647 859.858824H542.117647c-24.094118 0-48.188235-18.070588-48.188235-48.188236s24.094118-42.164706 48.188235-42.164706h307.2c30.117647 0 60.235294-30.117647 60.235294-66.258823v-674.635294c0-36.141176-24.094118-66.258824-60.235294-66.258824H228.894118c-30.117647 0-60.235294 30.117647-60.235294 66.258824V365.929412c0 24.094118-18.070588 48.188235-48.188236 48.188235s-36.141176-24.094118-36.141176-48.188235v-337.317647c0-84.329412 66.258824-156.611765 150.588235-156.611765h620.423529c84.329412 0 150.588235 72.282353 150.588236 156.611765V703.247059C999.905882 787.576471 933.647059 859.858824 849.317647 859.858824zM674.635294 552.658824c-18.070588 18.070588-48.188235 18.070588-66.258823 0L542.117647 486.4 481.882353 552.658824c-18.070588 18.070588-48.188235 18.070588-66.258824 0-18.070588-18.070588-18.070588-48.188235 0-66.258824l24.094118-24.094118h-30.117647c-24.094118 0-42.164706-18.070588-42.164706-42.164706 0-24.094118 18.070588-42.164706 42.164706-42.164705h90.352941v-30.117647H409.6c-24.094118 0-42.164706-18.070588-42.164706-42.164706s18.070588-42.164706 42.164706-42.164706h90.352941v-120.470588c0-24.094118 18.070588-42.164706 42.164706-42.164706 24.094118 0 42.164706 18.070588 42.164706 42.164706v120.470588h90.352941c24.094118 0 42.164706 18.070588 42.164706 42.164706s-18.070588 42.164706-42.164706 42.164706H590.305882v24.094117h90.352942c24.094118 0 42.164706 18.070588 42.164705 42.164706 0 24.094118-18.070588 42.164706-42.164705 42.164706h-30.117648l24.094118 24.094118c12.047059 24.094118 12.047059 54.211765 0 72.282353zM325.270588 661.082353l-54.211764-54.211765c-18.070588-18.070588-18.070588-48.188235 0-66.258823 18.070588-18.070588 48.188235-18.070588 66.258823 0l132.517647 132.517647c6.023529 6.023529 6.023529 12.047059 12.047059 18.070588v6.023529 12.047059c0 18.070588-6.023529 30.117647-18.070588 36.141177L331.294118 883.952941c-18.070588 18.070588-48.188235 18.070588-66.258824 0-24.094118-24.094118-24.094118-54.211765-6.023529-72.282353l54.211764-54.211764H108.423529c-24.094118 0-42.164706-24.094118-42.164705-48.188236s18.070588-48.188235 42.164705-48.188235h216.847059z"  horiz-adv-x="1024" />

    
    <glyph glyph-name="mima" unicode="&#58960;" d="M903.529412 474.352941h-102.4V576.752941c0 174.682353-126.494118 313.223529-289.129412 313.22353S228.894118 751.435294 228.894118 576.752941V474.352941H120.470588C54.211765 474.352941 0 420.141176 0 353.882353v-361.411765c0-66.258824 54.211765-120.470588 120.470588-120.470588h783.058824c66.258824 0 120.470588 54.211765 120.470588 120.470588V353.882353c0 66.258824-54.211765 120.470588-120.470588 120.470588zM319.247059 576.752941c0 126.494118 90.352941 228.894118 192.752941 228.894118s192.752941-102.4 192.752941-228.894118V474.352941H319.247059V576.752941zM933.647059-7.529412c0-18.070588-12.047059-30.117647-30.117647-30.117647H120.470588c-18.070588 0-30.117647 12.047059-30.117647 30.117647V353.882353c0 18.070588 12.047059 30.117647 30.117647 30.117647h783.058824c18.070588 0 30.117647-12.047059 30.117647-30.117647v-361.411765zM512 293.647059c-24.094118 0-48.188235-18.070588-48.188235-48.188235v-150.588236c0-24.094118 18.070588-48.188235 48.188235-48.188235s48.188235 18.070588 48.188235 48.188235v150.588236c0 30.117647-24.094118 48.188235-48.188235 48.188235z"  horiz-adv-x="1024" />

    
    <glyph glyph-name="buxianshimima" unicode="&#58961;" d="M1005.929412 426.164706c-6.023529 12.047059-180.705882 355.388235-493.929412 355.388235-30.117647 0-66.258824-6.023529-96.376471-12.047059-24.094118-6.023529-42.164706-30.117647-36.141176-54.211764 6.023529-24.094118 30.117647-42.164706 54.211765-36.141177 24.094118 6.023529 48.188235 6.023529 78.305882 6.02353 216.847059 0 361.411765-216.847059 397.552941-283.105883-18.070588-36.141176-42.164706-72.282353-72.282353-102.4-18.070588-18.070588-12.047059-48.188235 6.02353-66.258823 6.023529-6.023529 18.070588-12.047059 30.117647-12.047059s24.094118 6.023529 36.141176 18.070588c36.141176 42.164706 66.258824 90.352941 96.376471 138.541177 6.023529 18.070588 6.023529 36.141176 0 48.188235zM216.847059 763.482353c-18.070588 18.070588-48.188235 18.070588-66.258824 0s-18.070588-48.188235 0-66.258824l48.188236-48.188235C126.494118 582.776471 66.258824 510.494118 18.070588 426.164706c-6.023529-12.047059-6.023529-30.117647 0-42.164706 6.023529-12.047059 180.705882-355.388235 493.929412-355.388235 84.329412 0 168.658824 30.117647 234.917647 72.282353l102.4-102.4c6.023529-6.023529 18.070588-12.047059 30.117647-12.047059s24.094118 6.023529 30.117647 12.047059c18.070588 18.070588 18.070588 48.188235 0 66.258823L216.847059 763.482353z m216.847059-343.341177l90.352941-90.352941c-12.047059 0-24.094118-6.023529-36.141177 0-24.094118 6.023529-48.188235 24.094118-54.211764 54.211765-6.023529 12.047059-6.023529 24.094118 0 36.141176z m78.305882-301.17647c-216.847059 0-361.411765 216.847059-397.552941 283.105882C150.588235 474.352941 204.8 534.588235 265.035294 588.8L361.411765 492.423529c-18.070588-42.164706-24.094118-90.352941-18.070589-132.517647 18.070588-60.235294 60.235294-108.423529 120.470589-120.470588 18.070588-6.023529 30.117647-6.023529 48.188235-6.023529 30.117647 0 60.235294 6.023529 84.329412 24.094117l90.352941-90.352941c-54.211765-30.117647-114.447059-42.164706-174.682353-48.188235z"  horiz-adv-x="1024" />

    
    <glyph glyph-name="yonghuming" unicode="&#58962;" d="M807.152941 353.882353H216.847059C96.376471 353.882353 0 257.505882 0 137.035294v-48.188235c0-120.470588 96.376471-216.847059 216.847059-216.847059h590.305882c120.470588 0 216.847059 96.376471 216.847059 216.847059v48.188235c0 120.470588-96.376471 216.847059-216.847059 216.847059z m126.494118-265.035294c0-66.258824-54.211765-126.494118-126.494118-126.494118H216.847059c-66.258824 0-126.494118 54.211765-126.494118 126.494118v48.188235c0 66.258824 54.211765 126.494118 126.494118 126.494118h590.305882c66.258824 0 126.494118-54.211765 126.494118-126.494118v-48.188235zM512 414.117647c132.517647 0 240.941176 108.423529 240.941176 240.941177V896h-240.941176c-132.517647 0-240.941176-108.423529-240.941176-240.941176s108.423529-240.941176 240.941176-240.941177z m0 391.529412H662.588235V655.058824c0-84.329412-66.258824-150.588235-150.588235-150.588236S361.411765 570.729412 361.411765 655.058824s66.258824 150.588235 150.588235 150.588235z"  horiz-adv-x="1024" />

    
    <glyph glyph-name="xianshimima" unicode="&#58963;" d="M999.905882 402.070588c-6.023529 12.047059-180.705882 355.388235-493.929411 355.388236S24.094118 420.141176 12.047059 402.070588c-6.023529-12.047059-6.023529-30.117647 0-42.164706 6.023529-12.047059 180.705882-355.388235 493.929412-355.388235s487.905882 337.317647 493.929411 355.388235c6.023529 18.070588 6.023529 30.117647 0 42.164706z m-493.929411-301.17647c-216.847059 0-361.411765 216.847059-397.552942 283.105882 42.164706 66.258824 180.705882 283.105882 397.552942 283.105882s361.411765-216.847059 397.552941-283.105882c-36.141176-66.258824-180.705882-283.105882-397.552941-283.105882zM505.976471 552.658824C415.623529 552.658824 337.317647 474.352941 337.317647 384c0-90.352941 78.305882-168.658824 168.658824-168.658824 90.352941 0 168.658824 78.305882 168.658823 168.658824 0 90.352941-78.305882 168.658824-168.658823 168.658824z m0-246.964706c-42.164706 0-78.305882 36.141176-78.305883 78.305882 0 42.164706 36.141176 78.305882 78.305883 78.305882 42.164706 0 78.305882-36.141176 78.305882-78.305882 0-42.164706-36.141176-78.305882-78.305882-78.305882z"  horiz-adv-x="1024" />

    
    <glyph glyph-name="tiqianhuankuan" unicode="&#58964;" d="M901.12 691.2H870.4V844.8c-5.12 20.48-20.48 30.72-35.84 40.96-20.48 10.24-40.96 10.24-56.32 5.12L112.64 691.2c-5.12 0-10.24-5.12-15.36-5.12-30.72-10.24-51.2-40.96-51.2-71.68v-665.6c0-40.96 35.84-76.8 76.8-76.8h783.36c40.96 0 76.8 35.84 76.8 76.8v665.6c-5.12 40.96-35.84 76.8-81.92 76.8z m-102.4 128V691.2H368.64l430.08 128z m102.4-870.4H122.88v665.6h783.36v-665.6zM378.88 46.08c5.12-5.12 15.36-10.24 20.48-10.24s15.36 5.12 20.48 10.24c10.24 10.24 10.24 30.72 0 46.08l-46.08 46.08h209.92c92.16 0 168.96 76.8 168.96 168.96 0 92.16-76.8 168.96-168.96 168.96H317.44c-15.36 0-30.72-15.36-30.72-30.72s15.36-30.72 30.72-30.72h266.24c56.32 0 102.4-46.08 102.4-102.4s-46.08-102.4-102.4-102.4h-204.8l46.08 46.08c10.24 10.24 10.24 30.72 0 46.08-10.24 10.24-30.72 10.24-46.08 0l-102.4-102.4c-10.24-10.24-10.24-30.72 0-46.08l102.4-107.52z"  horiz-adv-x="1024" />

    
    <glyph glyph-name="daoqidaishou" unicode="&#58965;" d="M660.48 424.96H419.84c5.12-10.24 10.24-25.6 10.24-40.96 0 15.36-5.12 30.72-5.12 40.96-20.48 51.2-66.56 87.04-122.88 87.04-66.56 0-128-56.32-128-128 0-66.56 56.32-128 128-128 56.32 0 102.4 35.84 117.76 87.04h235.52c20.48 0 40.96 20.48 40.96 40.96s-15.36 40.96-35.84 40.96z m-358.4-102.4c-35.84 0-61.44 30.72-61.44 61.44 0 35.84 30.72 61.44 61.44 61.44s66.56-25.6 66.56-61.44-30.72-61.44-66.56-61.44zM921.6 896H102.4C46.08 896 0 849.92 0 793.6v-819.2c0-56.32 46.08-102.4 102.4-102.4h819.2c56.32 0 102.4 46.08 102.4 102.4V793.6c0 56.32-46.08 102.4-102.4 102.4z m20.48-921.6c0-10.24-10.24-20.48-20.48-20.48H102.4c-10.24 0-20.48 10.24-20.48 20.48V793.6c0 10.24 10.24 20.48 20.48 20.48h819.2c10.24 0 20.48-10.24 20.48-20.48v-819.2z"  horiz-adv-x="1024" />

    
    <glyph glyph-name="zhanqi" unicode="&#58966;" d="M624.64 317.44H409.6V389.12c0 5.12 5.12 10.24 10.24 10.24h230.4c20.48 0 40.96 20.48 40.96 40.96s-20.48 40.96-40.96 40.96H419.84c-51.2 0-92.16-40.96-92.16-92.16v-76.8c0-40.96 35.84-76.8 76.8-76.8h215.04v-81.92H378.88c-20.48 0-40.96-20.48-40.96-40.96s20.48-40.96 40.96-40.96h240.64c40.96 0 76.8 35.84 76.8 76.8v87.04c5.12 46.08-30.72 81.92-71.68 81.92zM911.36 773.12h-133.12V855.04c0 20.48-20.48 40.96-40.96 40.96s-40.96-20.48-40.96-40.96v-81.92H332.8V855.04c0 20.48-20.48 40.96-40.96 40.96-25.6 0-40.96-20.48-40.96-40.96v-81.92H112.64C56.32 773.12 15.36 727.04 15.36 675.84V-25.6c0-56.32 46.08-97.28 97.28-97.28h803.84c56.32 0 97.28 46.08 97.28 97.28V670.72c0 56.32-46.08 102.4-102.4 102.4z m20.48-798.72c0-10.24-10.24-15.36-15.36-15.36H112.64c-10.24 0-15.36 10.24-15.36 15.36V670.72c-5.12 10.24 5.12 20.48 15.36 20.48h138.24v-81.92c0-20.48 20.48-40.96 40.96-40.96s40.96 20.48 40.96 40.96V691.2h368.64v-81.92c0-20.48 20.48-40.96 40.96-40.96s40.96 20.48 40.96 40.96V691.2h133.12c10.24 0 15.36-10.24 15.36-15.36V-25.6z"  horiz-adv-x="1024" />

    
    <glyph glyph-name="huikuan" unicode="&#58967;" d="M834.56 629.76h-51.2c-20.48 0-40.96-15.36-40.96-40.96s15.36-40.96 40.96-40.96h51.2c10.24 0 15.36-10.24 15.36-15.36v-568.32c0-10.24-10.24-15.36-15.36-15.36H189.44c-10.24 0-15.36 10.24-15.36 15.36V532.48c0 10.24 10.24 15.36 15.36 15.36h51.2c20.48 0 40.96 15.36 40.96 40.96s-15.36 40.96-40.96 40.96h-51.2c-51.2 0-92.16-40.96-92.16-92.16v-568.32c0-51.2 40.96-92.16 92.16-92.16h640c51.2 0 92.16 40.96 92.16 92.16v563.2c5.12 51.2-35.84 97.28-87.04 97.28zM455.68 358.4c-15.36 15.36-40.96 15.36-56.32 0l-163.84-163.84c-15.36-15.36-15.36-40.96 0-56.32 10.24-10.24 15.36-10.24 25.6-10.24s20.48 5.12 25.6 10.24l133.12 133.12 133.12-133.12h5.12c5.12-5.12 10.24-5.12 15.36-10.24h5.12c5.12 0 10.24 0 15.36 5.12 5.12 0 5.12 5.12 10.24 5.12l163.84 163.84c15.36 15.36 15.36 40.96 0 56.32s-40.96 15.36-56.32 0l-133.12-133.12-122.88 133.12zM486.4 471.04c5.12-10.24 15.36-15.36 25.6-15.36s20.48 5.12 25.6 10.24l163.84 163.84c15.36 15.36 15.36 40.96 0 56.32s-40.96 15.36-56.32 0L552.96 588.8V855.04c0 25.6-20.48 40.96-40.96 40.96s-35.84-15.36-35.84-40.96V588.8L378.88 686.08c-15.36 15.36-40.96 15.36-56.32 0s-15.36-40.96 0-56.32l163.84-158.72z"  horiz-adv-x="1024" />

    
    <glyph glyph-name="xujiehuikuan" unicode="&#58968;" d="M870.4 896H153.6C97.28 896 51.2 849.92 51.2 793.6v-819.2c0-56.32 46.08-102.4 102.4-102.4h716.8c56.32 0 102.4 46.08 102.4 102.4V793.6c0 56.32-46.08 102.4-102.4 102.4z m20.48-921.6c0-15.36-10.24-25.6-25.6-25.6H153.6c-15.36 0-25.6 10.24-25.6 25.6V793.6c0 15.36 10.24 25.6 25.6 25.6h716.8c15.36 0 25.6-10.24 25.6-25.6v-819.2h-5.12zM322.56 593.92h317.44c10.24 0 20.48 10.24 20.48 20.48s-5.12 20.48-20.48 20.48H322.56c-10.24 0-20.48-10.24-20.48-20.48s10.24-20.48 20.48-20.48zM634.88 542.72H322.56c-10.24 0-20.48-5.12-20.48-15.36 0-10.24 10.24-20.48 20.48-20.48h312.32c76.8 0 133.12-61.44 133.12-133.12s-61.44-133.12-133.12-133.12H348.16l51.2 51.2c5.12 5.12 5.12 20.48 0 25.6s-20.48 5.12-25.6 0L286.72 230.4c-5.12-10.24-5.12-20.48 0-30.72l81.92-81.92c5.12-5.12 10.24-5.12 15.36-5.12 5.12 0 10.24 0 15.36 5.12 5.12 5.12 5.12 20.48 0 25.6l-51.2 51.2h281.6c97.28 0 174.08 76.8 174.08 174.08s-76.8 174.08-168.96 174.08z"  horiz-adv-x="1024" />

    
    <glyph glyph-name="xujie" unicode="&#58969;" d="M552.756219 682.029851c0 20.378109-15.283582 40.756219-40.756219 40.756219s-40.756219-20.378109-40.756219-40.756219V590.328358h76.417911V682.029851h5.094527zM471.243781 91.064677c0-20.378109 15.283582-40.756219 40.756219-40.756219s40.756219 15.283582 40.756219 40.756219V182.766169H471.243781v-91.701492zM583.323383 422.208955H445.771144c-25.472637 0-45.850746 20.378109-45.850746 45.850746s20.378109 45.850746 45.850746 45.850747h203.781095c20.378109 0 40.756219 15.283582 40.756219 40.756219 0 20.378109-15.283582 40.756219-40.756219 40.756219h-203.781095C379.542289 590.328358 323.502488 534.288557 323.502488 468.059701s56.039801-122.268657 122.268656-122.268656h132.457712c25.472637 0 45.850746-20.378109 45.850746-45.850746s-20.378109-45.850746-45.850746-45.850747h-203.781095c-20.378109 0-40.756219-15.283582-40.756219-40.756219 0-20.378109 15.283582-40.756219 40.756219-40.756219h203.781095c66.228856 0 122.268657 56.039801 122.268656 122.268657 0 71.323383-56.039801 127.363184-117.174129 127.363184zM863.522388 890.905473H160.477612c-56.039801 0-101.890547-45.850746-101.890547-101.890548v-815.124378c0-56.039801 45.850746-101.890547 101.890547-101.890547H868.616915c56.039801 0 101.890547 45.850746 101.890548 101.890547v815.124378c-5.094527 56.039801-50.945274 101.890547-106.985075 101.890548z m25.472637-911.920398c0-15.283582-10.189055-25.472637-25.472637-25.472637H160.477612c-15.283582 0-25.472637 10.189055-25.472637 25.472637V794.109453c0 15.283582 10.189055 25.472637 25.472637 25.472637H868.616915c15.283582 0 25.472637-10.189055 25.472637-25.472637v-815.124378h-5.094527z"  horiz-adv-x="1024" />

    
    <glyph glyph-name="zongfangkuanjine" unicode="&#58970;" d="M573.44 276.48c0-76.8 71.68-143.36 153.6-143.36h174.08v76.8h-174.08c-40.96 0-76.8 30.72-76.8 66.56 0 35.84 35.84 66.56 76.8 66.56h174.08V419.84h-174.08c-81.92 0-153.6-66.56-153.6-143.36zM906.24 680.96h-30.72v153.6C860.16 875.52 819.2 896 783.36 880.64L122.88 686.08c-5.12 0-10.24-5.12-15.36-5.12-30.72-10.24-51.2-40.96-51.2-71.68v-655.36c0-40.96 35.84-76.8 76.8-76.8h773.12c40.96 0 76.8 35.84 76.8 76.8V604.16c0 40.96-35.84 76.8-76.8 76.8z m-107.52 128v-128H373.76l424.96 128z m107.52-860.16H133.12V604.16h773.12v-655.36z"  horiz-adv-x="1024" />

    
    <glyph glyph-name="Thuikuan" unicode="&#58971;" d="M853.333333 631.084577h-50.945273c-20.378109 0-35.661692-15.283582-35.661692-35.661691 0-20.378109 15.283582-35.661692 35.661692-35.661692h50.945273c10.189055 0 15.283582-5.094527 15.283582-15.283582V-21.014925c0-10.189055-5.094527-15.283582-15.283582-15.283582H211.422886c-10.189055 0-15.283582 5.094527-15.283583 15.283582V534.288557c0 10.189055 5.094527 15.283582 15.283583 15.283582h50.945273c20.378109 0 35.661692 15.283582 35.661692 35.661692 0 20.378109-15.283582 35.661692-35.661692 35.661691h-50.945273c-50.945274 0-91.701493-40.756219-91.701493-91.701492v-565.492537c0-50.945274 40.756219-91.701493 91.701493-91.701493h636.81592c50.945274 0 91.701493 40.756219 91.701493 91.701493V534.288557c5.094527 50.945274-35.661692 96.79602-86.606966 96.79602zM298.029851 350.885572c0-15.283582 15.283582-30.567164 30.567164-30.567164h173.21393v-285.293532c0-15.283582 15.283582-30.567164 30.567164-30.567165h10.189055c15.283582 0 30.567164 15.283582 30.567164 30.567165v285.293532h173.213931c15.283582 0 30.567164 15.283582 30.567164 30.567164v10.189055c0 15.283582-15.283582 30.567164-30.567164 30.567164H323.502488c-15.283582 0-30.567164-15.283582-30.567165-30.567164v-10.189055zM506.905473 473.154229c5.094527-5.094527 15.283582-10.189055 25.472636-10.189055s20.378109 5.094527 25.472637 10.189055l163.024876 163.024875c15.283582 15.283582 15.283582 40.756219 0 56.039801-15.283582 15.283582-40.756219 15.283582-56.039801 0l-91.701493-101.890547V860.338308c0 20.378109-15.283582 35.661692-35.661691 35.661692-25.472637 0-40.756219-15.283582-40.756219-35.661692V590.328358L399.920398 687.124378c-15.283582 15.283582-40.756219 15.283582-56.039801 0-15.283582-15.283582-15.283582-40.756219 0-56.039801l163.024876-157.930348z"  horiz-adv-x="1024" />

    
    <glyph glyph-name="daichaoshezhi" unicode="&#58972;" d="M1024 576.752941s-6.023529 0 0 0l-78.305882 234.917647c-18.070588 18.070588-30.117647 24.094118-42.164706 24.094118H114.447059c-12.047059 0-30.117647-12.047059-30.117647-24.094118L6.023529 576.752941c-6.023529 0-6.023529-6.023529-6.023529-12.047059 0-66.258824 36.141176-120.470588 96.376471-144.564706 60.235294-24.094118 132.517647-6.023529 174.682353 36.141177 30.117647-24.094118 72.282353-42.164706 120.470588-42.164706s90.352941 18.070588 120.470588 48.188235c24.094118-30.117647 66.258824-48.188235 114.447059-48.188235 48.188235 0 90.352941 18.070588 120.470588 48.188235 24.094118-30.117647 72.282353-48.188235 114.447059-48.188235 78.305882 0 156.611765 54.211765 162.635294 156.611765v6.023529z m-512 24.094118c-18.070588 0-36.141176-18.070588-36.141176-36.141177 0-78.305882-72.282353-78.305882-84.329412-78.305882-6.023529 0-84.329412 0-84.329412 78.305882 0 18.070588-18.070588 36.141176-36.141176 36.141177-12.047059 0-24.094118 0-30.117648-12.047059-6.023529-6.023529-6.023529-12.047059-6.023529-18.070588 0-78.305882-72.282353-78.305882-84.329412-78.305883-12.047059 0-78.305882 6.023529-84.329411 72.282353l72.282352 198.776471h740.894118l72.282353-192.752941c-6.023529-60.235294-54.211765-72.282353-84.329412-72.282353-6.023529 0-84.329412 0-84.329411 78.305882 0 18.070588-18.070588 36.141176-36.141177 36.141177-12.047059 0-24.094118-6.023529-30.117647-12.047059-6.023529-6.023529-6.023529-12.047059-6.023529-18.070588 0-78.305882-72.282353-78.305882-84.329412-78.305883S542.117647 504.470588 542.117647 582.776471c6.023529 6.023529-6.023529 18.070588-30.117647 18.070588zM337.317647 377.976471l-132.517647-138.541177c-18.070588-18.070588-18.070588-42.164706 0-60.235294l12.047059-6.023529c6.023529 0 12.047059-6.023529 18.070588-6.02353 12.047059 0 24.094118 6.023529 30.117647 6.02353l138.541177 138.541176c18.070588 18.070588 18.070588 42.164706 0 60.235294-18.070588 24.094118-48.188235 24.094118-66.258824 6.02353zM325.270588 94.870588c6.023529-12.047059 24.094118-12.047059 30.117647-12.047059 6.023529 0 24.094118 6.023529 30.117647 12.047059l222.870589 222.870588c18.070588 18.070588 18.070588 42.164706 0 60.235295-18.070588 18.070588-42.164706 18.070588-60.235295 0l-222.870588-222.870589c-18.070588-18.070588-18.070588-42.164706 0-60.235294zM921.6 384c-24.094118 0-42.164706-18.070588-42.164706-42.164706v-307.2c0-18.070588-12.047059-30.117647-30.117647-30.117647H174.682353c-18.070588 0-30.117647 12.047059-30.117647 30.117647V347.858824c0 24.094118-18.070588 42.164706-42.164706 42.164705-24.094118 0-42.164706-18.070588-42.164706-42.164705v-307.2c0-60.235294 48.188235-108.423529 108.42353-108.42353H843.294118c66.258824 0 108.423529 54.211765 114.447058 108.42353V347.858824c6.023529 24.094118-12.047059 36.141176-36.141176 36.141176z"  horiz-adv-x="1024" />

    
    <glyph glyph-name="dangtiandaikuan" unicode="&#58973;" d="M722.823529 896H240.941176C108.423529 896 0 787.576471 0 655.058824v-421.647059c0-132.517647 108.423529-240.941176 240.941176-240.941177h265.035295c18.070588 0 36.141176 18.070588 36.141176 36.141177s-18.070588 36.141176-36.141176 36.141176H240.941176c-90.352941 0-168.658824 78.305882-168.658823 168.658824V655.058824c0 90.352941 78.305882 168.658824 168.658823 168.658823h481.882353c84.329412 0 150.588235-60.235294 162.635295-138.541176h-783.058824v-72.282353h825.223529c18.070588 0 36.141176 12.047059 36.141177 30.117647v42.164706c-12.047059 120.470588-120.470588 210.823529-240.941177 210.823529zM909.552941 504.470588h-259.011765c-30.117647 0-54.211765-24.094118-54.211764-54.211764v-391.529412c0-18.070588 12.047059-36.141176 24.094117-42.164706 18.070588-6.023529 36.141176-6.023529 48.188236 6.023529l102.4 78.305883 102.4-78.305883c6.023529-6.023529 18.070588-12.047059 30.117647-12.047059 6.023529 0 12.047059 0 24.094117 6.02353 18.070588 6.023529 24.094118 24.094118 24.094118 42.164706V450.258824c0 30.117647-12.047059 54.211765-42.164706 54.211764z m-18.070588-397.552941l-66.258824 48.188235c-24.094118 18.070588-60.235294 18.070588-84.329411 0l-66.258824-48.188235V432.188235h216.847059v-325.270588z"  horiz-adv-x="1024" />

    
    <glyph glyph-name="zhucejigou" unicode="&#58974;" d="M511.699001 312.12134c24.079953 0 42.139918 24.079953 42.139917 42.139918v90.299824c0 24.079953-18.059965 42.139918-42.139917 42.139917-24.079953 0-42.139918-18.059965-42.139918-42.139917v-90.299824c6.019988-18.059965 24.079953-42.139918 42.139918-42.139918zM511.699001 83.361787c24.079953 0 42.139918 18.059965 42.139917 42.139918v90.299824c0 24.079953-18.059965 42.139918-42.139917 42.139917-24.079953 0-42.139918-18.059965-42.139918-42.139917v-90.299824c6.019988-24.079953 24.079953-42.139918 42.139918-42.139918zM686.27866 312.12134c24.079953 0 42.139918 18.059965 42.139917 42.139918v90.299824c0 24.079953-18.059965 42.139918-42.139917 42.139917-24.079953 0-42.139918-18.059965-42.139918-42.139917v-90.299824c0-18.059965 18.059965-42.139918 42.139918-42.139918zM686.27866 83.361787c24.079953 0 42.139918 18.059965 42.139917 42.139918v90.299824c0 24.079953-18.059965 42.139918-42.139917 42.139917-24.079953 0-42.139918-18.059965-42.139918-42.139917v-90.299824c0-24.079953 18.059965-42.139918 42.139918-42.139918zM987.278072 11.121928v439.459142c0 114.379777-90.299824 204.6796-204.679601 204.6796h-102.3398v36.11993c0 114.379777-90.299824 204.6796-198.659612 204.6796H228.759553c-108.359788 0-192.639624-90.299824-192.639624-204.6796v-680.258672c-24.079953 0-36.119929-18.059965-36.119929-36.119929 0-24.079953 18.059965-42.139918 42.139918-42.139918h939.118165c24.079953 0 42.139918 18.059965 42.139918 42.139918-6.019988 18.059965-18.059965 36.119929-36.119929 36.119929z m-84.279836 439.459142v-433.439153H319.059377v433.439153c0 66.219871 54.179894 120.399765 120.399765 120.399765H782.598471c66.219871 6.019988 120.399765-54.179894 120.399765-120.399765z m-674.238683 361.199294H481.599059c60.199882 0 114.379777-54.179894 114.379777-120.399764v-36.11993H445.47913c-114.379777 0-204.6796-90.299824-204.6796-204.6796v-433.439153H120.399765v674.238683c0 66.219871 42.139918 120.399765 108.359788 120.399764z"  horiz-adv-x="1024" />

    
    <glyph glyph-name="daikuanshenqingcishu" unicode="&#58975;" d="M722.823529 896H240.941176C108.423529 896 0 787.576471 0 655.058824v-421.647059c0-132.517647 108.423529-240.941176 240.941176-240.941177h265.035295c18.070588 0 36.141176 18.070588 36.141176 36.141177s-18.070588 36.141176-36.141176 36.141176H240.941176c-90.352941 0-168.658824 78.305882-168.658823 168.658824V655.058824c0 90.352941 78.305882 168.658824 168.658823 168.658823h481.882353c84.329412 0 150.588235-60.235294 162.635295-138.541176h-783.058824v-72.282353h825.223529c18.070588 0 30.117647 12.047059 30.117647 30.117647v42.164706C951.717647 805.647059 843.294118 896 722.823529 896zM945.694118 233.411765c18.070588 24.094118 30.117647 54.211765 30.117647 84.329411 0 78.305882-66.258824 144.564706-144.564706 144.564706s-144.564706-66.258824-144.564706-144.564706c0-30.117647 12.047059-60.235294 30.117647-84.329411-66.258824-42.164706-114.447059-114.447059-114.447059-198.776471 0-24.094118 18.070588-42.164706 42.164706-42.164706h367.435294c24.094118 0 42.164706 18.070588 42.164706 42.164706 0 84.329412-42.164706 156.611765-108.423529 198.776471z m-114.447059 0c-48.188235 0-90.352941 42.164706-90.352941 90.352941S783.058824 414.117647 831.247059 414.117647s90.352941-42.164706 90.352941-90.352941c0-54.211765-42.164706-90.352941-90.352941-90.352941z m0-54.211765c24.094118 0 48.188235 6.023529 66.258823 18.070588 54.211765-24.094118 96.376471-84.329412 102.4-150.588235H662.588235c6.023529 66.258824 42.164706 120.470588 102.4 150.588235 18.070588-12.047059 42.164706-18.070588 66.258824-18.070588z"  horiz-adv-x="1054" />

    
    <glyph glyph-name="zhucejigoushuliang" unicode="&#58976;" d="M853.333333 896H170.666667a136.533333 136.533333 0 0 1-136.533334-136.533333v-750.933334a136.533333 136.533333 0 0 1 136.533334-136.533333h682.666666a136.533333 136.533333 0 0 1 136.533334 136.533333V759.466667a136.533333 136.533333 0 0 1-136.533334 136.533333z m54.613334-887.466667a54.613333 54.613333 0 0 0-54.613334-54.613333H170.666667a54.613333 54.613333 0 0 0-54.613334 54.613333V759.466667a54.613333 54.613333 0 0 0 54.613334 54.613333h682.666666a54.613333 54.613333 0 0 0 54.613334-54.613333zM512 479.573333A143.36 143.36 0 1 1 368.64 622.933333 143.36 143.36 0 0 1 512 479.573333z m0 204.8a61.44 61.44 0 1 0-61.44-61.44 61.44 61.44 0 0 0 61.44 61.44zM221.866667 128m-68.266667 0a68.266667 68.266667 0 1 1 136.533333 0 68.266667 68.266667 0 1 1-136.533333 0ZM221.866667 366.933333m-68.266667 0a68.266667 68.266667 0 1 1 136.533333 0 68.266667 68.266667 0 1 1-136.533333 0ZM802.133333 179.2h-443.733333a51.2 51.2 0 0 1 0-102.4h443.733333a51.2 51.2 0 0 1 0 102.4zM802.133333 418.133333h-443.733333a51.2 51.2 0 0 1 0-102.4h443.733333a51.2 51.2 0 0 1 0 102.4z"  horiz-adv-x="1024" />

    
    <glyph glyph-name="dangtiandaikuanshenqingjigoushu" unicode="&#58977;" d="M954.509182 601.775293l-311.603455 284.182351a37.392415 37.392415 0 0 1-24.928277 9.97131H197.935992A137.728727 137.728727 0 0 1 55.844817 762.562676v-757.819604a137.728727 137.728727 0 0 1 142.091175-132.119865h626.946152a137.728727 137.728727 0 0 1 142.091176 132.119865V573.107775a37.392415 37.392415 0 0 1-12.464138 28.667518zM632.311209 792.476607l255.514833-231.832971h-255.514833z m259.877282-787.733535a62.320691 62.320691 0 0 0-67.306347-57.335036H197.935992a62.320691 62.320691 0 0 0-67.306346 57.335036V762.562676a62.320691 62.320691 0 0 0 67.306346 57.335035h359.590388v-296.646489a37.392415 37.392415 0 0 1 37.392414-37.392415h297.269697zM269.604787 355.608563a46.740518 46.740518 0 0 1 46.740518-46.740519h446.216148a46.740518 46.740518 0 0 1 0 93.481037H316.345305a46.740518 46.740518 0 0 1-46.740518-46.740518zM762.561453 179.241007H316.345305a46.740518 46.740518 0 0 1 0-93.481037h446.216148a46.740518 46.740518 0 0 1 0 93.481037zM316.345305 531.976119h111.554037a46.740518 46.740518 0 0 1 0 93.481036H316.345305a46.740518 46.740518 0 0 1 0-93.481036z"  horiz-adv-x="1024" />

    
    <glyph glyph-name="zidongtie" unicode="&#58978;" d="M150.588235 420.141176h439.717647v-78.305882H150.588235zM795.105882 106.917647H78.305882v361.411765h927.62353V727.341176c0 48.188235-42.164706 90.352941-90.352941 90.352942H90.352941C42.164706 817.694118 0 775.529412 0 727.341176v-620.423529c0-42.164706 30.117647-78.305882 72.282353-78.305882h722.823529c12.047059 0 24.094118 12.047059 24.094118 24.094117v36.141177c0 6.023529-12.047059 18.070588-24.094118 18.070588zM78.305882 727.341176c0 6.023529 6.023529 6.023529 6.02353 6.02353h831.247059c6.023529 0 6.023529-6.023529 6.023529-6.02353v-186.729411h-843.294118V727.341176zM1024 257.505882l-78.305882 78.305883h-6.02353l-78.305882-78.305883v-6.023529s0-6.023529 6.023529-6.023529h36.141177V52.705882c0-12.047059 12.047059-24.094118 24.094117-24.094117h36.141177c12.047059 0 24.094118 12.047059 24.094118 24.094117v198.776471h42.164705c-6.023529 0-6.023529 0-6.023529 6.023529z"  horiz-adv-x="1030" />

    
    <glyph glyph-name="xujieguizeshezhi" unicode="&#58979;" d="M813.176471 896h-602.352942C138.541176 896 78.305882 835.764706 78.305882 763.482353v-740.894118c0-72.282353 60.235294-132.517647 132.517647-132.517647h602.352942c72.282353 0 132.517647 60.235294 132.517647 132.517647V763.482353c0 72.282353-60.235294 132.517647-132.517647 132.517647z m48.188235-873.411765c0-30.117647-24.094118-48.188235-48.188235-48.188235h-602.352942c-30.117647 0-48.188235 24.094118-48.188235 48.188235V763.482353c0 30.117647 24.094118 48.188235 48.188235 48.188235h602.352942c30.117647 0 48.188235-24.094118 48.188235-48.188235v-740.894118zM252.988235 600.847059m-48.188235 0a48.188235 48.188235 0 1 1 96.376471 0 48.188235 48.188235 0 1 1-96.376471 0ZM252.988235 396.047059m-48.188235 0a48.188235 48.188235 0 1 1 96.376471 0 48.188235 48.188235 0 1 1-96.376471 0ZM252.988235 191.247059m-48.188235 0a48.188235 48.188235 0 1 1 96.376471 0 48.188235 48.188235 0 1 1-96.376471 0ZM764.988235 643.011765H349.364706c-12.047059 0-24.094118-12.047059-24.094118-24.094118v-36.141176c0-12.047059 12.047059-24.094118 24.094118-24.094118h409.6c12.047059 0 24.094118 12.047059 24.094118 24.094118v36.141176c6.023529 18.070588-6.023529 24.094118-18.070589 24.094118zM764.988235 438.211765H349.364706c-12.047059 0-18.070588-12.047059-18.070588-24.094118v-36.141176c0-12.047059 6.023529-24.094118 18.070588-24.094118h409.6c12.047059 0 24.094118 12.047059 24.094118 24.094118V414.117647c6.023529 12.047059-6.023529 24.094118-18.070589 24.094118zM764.988235 233.411765H349.364706c-12.047059 0-24.094118-12.047059-24.094118-24.094118v-36.141176c0-12.047059 12.047059-24.094118 24.094118-24.094118h409.6c12.047059 0 24.094118 12.047059 24.094118 24.094118v36.141176c6.023529 12.047059-6.023529 24.094118-18.070589 24.094118z"  horiz-adv-x="1024" />

    


  </font>
</defs>
</svg>
